{
  "accessors": [
    {
      "bufferView": 2,
      "componentType": 5126,
      "count": 3697,
      "max": [
        0.5278273224830627,
        1.0034726858139038,
        0.21536597609519958
      ],
      "min": [
        -0.5278273224830627,
        -1.000667929649353,
        -0.21888217329978943
      ],
      "type": "VEC3"
    },
    {
      "bufferView": 2,
      "byteOffset": 44364,
      "componentType": 5126,
      "count": 3697,
      "max": [
        1.0,
        1.0,
        1.0
      ],
      "min": [
        -1.0,
        -1.0,
        -1.0
      ],
      "type": "VEC3"
    },
    {
      "bufferView": 3,
      "componentType": 5126,
      "count": 3697,
      "max": [
        1.0,
        1.0,
        1.0,
        1.0
      ],
      "min": [
        -1.0,
        -1.0,
        -1.0,
        1.0
      ],
      "type": "VEC4"
    },
    {
      "bufferView": 1,
      "componentType": 5126,
      "count": 3697,
      "max": [
        0.9991308450698853,
        0.9842090010643005
      ],
      "min": [
        0.0008691062103025615,
        0.0008691063267178833
      ],
      "type": "VEC2"
    },
    {
      "bufferView": 0,
      "componentType": 5125,
      "count": 9516,
      "type": "SCALAR"
    }
  ],
  "asset": {
    "extras": {
      "author": "zombitt (https://sketchfab.com/zombitt)",
      "license": "CC-BY-4.0 (http://creativecommons.org/licenses/by/4.0/)",
      "source": "https://sketchfab.com/3d-models/cassette-recorder-ce9f02da632641299189f557633cb16d",
      "title": "Cassette Recorder"
    },
    "generator": "Sketchfab-15.25.0",
    "version": "2.0"
  },
  "bufferViews": [
    {
      "buffer": 0,
      "byteLength": 38064,
      "name": "floatBufferViews",
      "target": 34963
    },
    {
      "buffer": 0,
      "byteLength": 29576,
      "byteOffset": 38064,
      "byteStride": 8,
      "name": "floatBufferViews",
      "target": 34962
    },
    {
      "buffer": 0,
      "byteLength": 88728,
      "byteOffset": 67640,
      "byteStride": 12,
      "name": "floatBufferViews",
      "target": 34962
    },
    {
      "buffer": 0,
      "byteLength": 59152,
      "byteOffset": 156368,
      "byteStride": 16,
      "name": "floatBufferViews",
      "target": 34962
    }
  ],
  "buffers": [
    {
      "byteLength": 215520,
      "uri": "scene.bin"
    }
  ],
  "extensionsUsed": [
    "KHR_materials_specular"
  ],
  "images": [
    {
      "uri": "textures/M_VHS_baseColor.png"
    },
    {
      "uri": "textures/M_VHS_metallicRoughness.png"
    },
    {
      "uri": "textures/M_VHS_normal.png"
    },
    {
      "uri": "textures/M_VHS_specularf0.png"
    }
  ],
  "materials": [
    {
      "doubleSided": true,
      "extensions": {
        "KHR_materials_specular": {
          "specularColorFactor": [
            1.0,
            1.0,
            1.0
          ],
          "specularFactor": 1.0,
          "specularTexture": {
            "index": 3
          }
        }
      },
      "name": "M_VHS",
      "normalTexture": {
        "index": 2
      },
      "occlusionTexture": {
        "index": 1
      },
      "pbrMetallicRoughness": {
        "baseColorTexture": {
          "index": 0
        },
        "metallicRoughnessTexture": {
          "index": 1
        }
      }
    }
  ],
  "meshes": [
    {
      "name": "SM_VHS_M_VHS_0",
      "primitives": [
        {
          "attributes": {
            "NORMAL": 1,
            "POSITION": 0,
            "TANGENT": 2,
            "TEXCOORD_0": 3
          },
          "indices": 4,
          "material": 0,
          "mode": 4
        }
      ]
    }
  ],
  "nodes": [
    {
      "children": [
        1
      ],
      "matrix": [
        1.8997607231140137,
        0.0,
        0.0,
        0.0,
        0.0,
        4.2183161921594296e-16,
        -1.8997607231140137,
        0.0,
        0.0,
        1.8997607231140137,
        4.2183161921594296e-16,
        0.0,
        0.0,
        0.0,
        0.0,
        1.0
      ],
      "name": "Sketchfab_model"
    },
    {
      "children": [
        2
      ],
      "matrix": [
        0.009999999776482582,
        0.0,
        0.0,
        0.0,
        0.0,
        0.0,
        0.009999999776482582,
        0.0,
        0.0,
        -0.009999999776482582,
        0.0,
        0.0,
        0.0,
        0.0,
        0.0,
        1.0
      ],
      "name": "61dc3b073c1f419499eaa1fb20154b20.fbx"
    },
    {
      "children": [
        3
      ],
      "name": "RootNode"
    },
    {
      "children": [
        4
      ],
      "matrix": [
        11.517264366149902,
        0.0,
        0.0,
        0.0,
        0.0,
        -1.8764005352684727e-06,
        -11.51726436614975,
        0.0,
        0.0,
        11.51726436614975,
        -1.8764005352684727e-06,
        0.0,
        0.0,
        0.0,
        0.0,
        1.0
      ],
      "name": "SM_VHS"
    },
    {
      "mesh": 0,
      "name": "SM_VHS_M_VHS_0"
    }
  ],
  "samplers": [
    {
      "magFilter": 9729,
      "minFilter": 9987,
      "wrapS": 10497,
      "wrapT": 10497
    }
  ],
  "scene": 0,
  "scenes": [
    {
      "name": "Sketchfab_Scene",
      "nodes": [
        0
      ]
    }
  ],
  "textures": [
    {
      "sampler": 0,
      "source": 0
    },
    {
      "sampler": 0,
      "source": 1
    },
    {
      "sampler": 0,
      "source": 2
    },
    {
      "sampler": 0,
      "source": 3
    }
  ]
}
